<svg xmlns="http://www.w3.org/2000/svg" xmlns:xlink="http://www.w3.org/1999/xlink" viewBox="0 0 94.85 94.85">
    <defs>
        <style>
            .cls-1 {
                fill: url(#Gradient_bez_nazwy_53);
            }

            .cls-2,
            .cls-3 {
                fill: #fff;
            }

            .cls-2 {
                opacity: 0.5;
            }

            .cls-4 {
                fill: #020202;
            }

            .cls-5 {
                fill: #f4f4f4;
            }

            .cls-12,
            .cls-13,
            .cls-14,
            .cls-6 {
                fill: none;
            }

            .cls-6 {
                stroke: #000;
                stroke-linejoin: round;
                stroke-width: 0.1px;
            }

            .cls-13,
            .cls-6 {
                stroke-linecap: round;
            }

            .cls-7 {
                fill: #ec8b46;
            }

            .cls-8 {
                fill: #68cd66;
            }

            .cls-9 {
                fill: #2088ff;
            }

            .cls-10 {
                fill: #764abc;
            }

            .cls-11 {
                fill: #fae072;
            }

            .cls-12,
            .cls-13 {
                stroke: #fff;
                stroke-miterlimit: 10;
                stroke-width: 0.4px;
            }

            .cls-15 {
                fill: #157ec9;
            }

            .cls-16 {
                fill: #0d64b1;
            }

            .cls-17 {
                fill: #319ce0;
            }

            .cls-18 {
                fill: #3ea2e2;
            }

            #user,
            #connect {
                transform-box: fill-box;
                transform-origin: center;
            }

            .shape {
                transform-box: fill-box;
                transform-origin: center;

                opacity: 0;
            }

            .left-top-circle {
                animation: left-top-transition 5s linear infinite;
                animation-delay: 5s;

                transform: translate(-30px, -15px);

            }

            .right-bottom-pentagon {
                animation: right-bottom-transition 5s linear infinite;
                animation-delay: 6s;

                transform: translate(25px, 15px);
            }

            .right-top-triangle {
                animation: right-top-transition 5s linear infinite;
                animation-delay: 7s;

                transform: translate(20px, -15px);
            }

            .left-bottom-square {
                animation: left-bottom-transition 5s linear infinite;
                animation-delay: 8s;

                transform: translate(-25px, 15px);
            }




            @keyframes left-top-transition {
                0% {
                    opacity: 1;
                    transform: translate(0px, 0px) rotate(0deg);
                }

                50% {
                    transform: translate(-15px, -7.5px) rotate(360deg) scale(1);
                }

                100% {
                    opacity: 1;
                    transform: translate(-30px, -15px) rotate(720deg) scale(0);
                }
            }

            @keyframes right-top-transition {
                0% {
                    opacity: 1;
                    transform: translate(0px, 0px) rotate(0deg);
                }

                50% {
                    transform: translate(15px, -7.5px) rotate(360deg) scale(1);
                }

                100% {
                    opacity: 1;
                    transform: translate(28px, -15px) rotate(720deg) scale(0);
                }
            }

            @keyframes left-bottom-transition {
                0% {
                    opacity: 1;
                    transform: translate(0px, 0px) rotate(0deg);
                }

                50% {
                    transform: translate(-15px, 8.5px) rotate(360deg) scale(1);
                }

                100% {
                    opacity: 1;
                    transform: translate(-20px, 15px) rotate(720deg) scale(0);
                }
            }

            @keyframes right-bottom-transition {
                0% {
                    opacity: 1;
                    transform: translate(0px, 0px) rotate(0deg);
                }

                50% {
                    transform: translate(20px, 12px) rotate(360deg) scale(1);
                }

                100% {
                    opacity: 1;
                    transform: translate(30px, 20px) rotate(720deg) scale(0);
                }
            }
        </style>
        <linearGradient id="Gradient_bez_nazwy_53" x1="11.36" y1="10.22" x2="98.2" y2="99.8"
            gradientUnits="userSpaceOnUse">
            <stop offset="0" stop-color="#024593" />
            <stop offset="0.13" stop-color="#0a5daa" />
            <stop offset="0.43" stop-color="#1c92dc" />
            <stop offset="0.48" stop-color="#369ee0" />
            <stop offset="0.68" stop-color="#8bc6ef" />
            <stop offset="0.81" stop-color="#c1dff8" />
            <stop offset="0.88" stop-color="#d6e9fb" />
        </linearGradient>

    </defs>
    <g id="Warstwa_2" data-name="Warstwa 2">
        <g id="GITHUB">
            <circle id="photoObjectBg" class="cls-1" cx="47.42" cy="47.42" r="38.5" />
            <path class="cls-2"
                d="M37,35.42H57.81a3.11,3.11,0,0,1,3.11,3.11v4.67a0,0,0,0,1,0,0h-27a0,0,0,0,1,0,0V38.54A3.11,3.11,0,0,1,37,35.42Z" />
            <path class="cls-3"
                d="M33.92,40.52h27a0,0,0,0,1,0,0V56.31a3.12,3.12,0,0,1-3.12,3.12H37a3.12,3.12,0,0,1-3.12-3.12V40.52A0,0,0,0,1,33.92,40.52Z" />
            <circle class="cls-4" cx="57.5" cy="54.65" r="8.12" />
            <path class="cls-5"
                d="M53.15,52.22c-.08-.33-.41-1.86.1-2.11a.38.38,0,0,1,.17,0,4.79,4.79,0,0,1,2,.79,8.41,8.41,0,0,1,4.07,0c.14-.11,1.56-1.23,2.21-.76a.61.61,0,0,1,.14.14c.5.64,0,1.78-.07,2A3.84,3.84,0,0,1,62.68,54a4,4,0,0,1-1.1,3.52,3.76,3.76,0,0,1-2.58.94,1.51,1.51,0,0,1,.59.86,1.25,1.25,0,0,1,0,.47v2.71a8.13,8.13,0,0,1-4.23,0V60.71a2.48,2.48,0,0,1-.77.12A2.23,2.23,0,0,1,52.28,59l-.52-.44-.31-.25a.47.47,0,0,1,.12-.26c.22-.2.62,0,.71,0,.46.18.55.51,1.08,1a4.5,4.5,0,0,0,.66.54h1.35a1.88,1.88,0,0,1,.21-.62,1.81,1.81,0,0,1,.3-.41,5.16,5.16,0,0,1-2-.68,2.89,2.89,0,0,1-.54-.37,3.5,3.5,0,0,1-1-2.13,3.75,3.75,0,0,1,.06-2,3.19,3.19,0,0,1,.61-1Z" />
            <line class="cls-6" x1="52.25" y1="58.34" x2="52.43" y2="58.34" />
            <line class="cls-6" x1="52.59" y1="58.65" x2="52.7" y2="58.65" />
            <polyline class="cls-6" points="52.91 59.08 53.01 59.08 53.01 59.19" />
            <rect class="cls-6" x="53.33" y="59.5" width="0.13" height="0.1" />
            <line class="cls-6" x1="53.86" y1="59.92" x2="54.06" y2="59.92" />
            <line class="cls-6" x1="54.49" y1="60" x2="54.71" y2="60" />
            <line class="cls-6" x1="55.11" y1="59.92" x2="55.35" y2="59.92" />
            <line class="cls-6" x1="53.4" y1="59.55" x2="53.33" y2="59.61" />
            <circle class="cls-7" cx="50.21" cy="48.76" r="0.45" />
            <circle class="cls-8" cx="48.59" cy="51.8" r="0.64" />
            <circle class="cls-7" cx="64.99" cy="60.5" r="0.42" />
            <circle class="cls-9" cx="51.7" cy="60.75" r="0.26" />
            <circle class="cls-9" cx="41.95" cy="50.88" r="0.13" />
            <circle class="cls-9" cx="46.23" cy="48.43" r="0.11" />
            <circle class="cls-8" cx="67.02" cy="55.07" r="0.66" />
            <circle class="cls-9" cx="68.26" cy="57.73" r="0.32" />
            <rect class="cls-10" x="64.93" y="48.69" width="0.76" height="0.76"
                transform="translate(-7.04 11.13) rotate(-9.25)" />
            <rect class="cls-11" x="68.1" y="51.48" width="0.95" height="0.95"
                transform="matrix(0.98, -0.2, 0.2, 0.98, -8.86, 14.46)" />
            <rect class="cls-9" x="64.79" y="49.76" width="0.4" height="0.4" />
            <rect class="cls-9" x="70.47" y="53.73" width="0.16" height="0.16" />
            <rect class="cls-9" x="68.67" y="53.38" width="0.23" height="0.23" />
            <circle class="cls-9" cx="69.29" cy="61.01" r="0.22" />
            <circle class="cls-9" cx="73.57" cy="58.65" r="0.19" />
            <rect class="cls-10" x="47.56" y="54.91" width="0.78" height="0.78"
                transform="translate(-10.31 11) rotate(-11.82)" />
            <rect class="cls-11" x="48.9" y="58.51" width="0.96" height="0.96"
                transform="translate(-11.04 11.37) rotate(-11.82)" />
            <rect class="cls-9" x="49.61" y="60.67" width="0.16" height="0.16" />
            <rect class="cls-9" x="48.92" y="56.55" width="0.25" height="0.25" />
            <rect class="cls-9" x="43.57" y="60.09" width="0.18" height="0.18" />
            <g id="connect">
                <circle class="cls-12" cx="31.95" cy="29.77" r="0.76" />
                <circle class="cls-12" cx="35.18" cy="29.31" r="0.76" />
                <circle class="cls-12" cx="38.7" cy="28.73" r="0.76" />
                <circle class="cls-12" cx="40.47" cy="30.96" r="0.76" />
                <circle class="cls-12" cx="40.27" cy="34" r="0.76" />
                <circle class="cls-12" cx="35.68" cy="33.51" r="2.26" />
                <circle class="cls-12" cx="40.73" cy="36.51" r="0.76" />
                <circle class="cls-12" cx="38.46" cy="36.89" r="0.76" />
                <circle class="cls-12" cx="35.94" cy="38.71" r="0.76" />
                <circle class="cls-12" cx="33.47" cy="37.03" r="0.76" />
                <circle class="cls-12" cx="30.82" cy="36.71" r="0.76" />
                <circle class="cls-12" cx="31.48" cy="33.24" r="0.76" />
                <line class="cls-12" x1="32.66" y1="29.5" x2="34.44" y2="29.5" />
                <line class="cls-13" x1="31.72" y1="32.51" x2="31.72" y2="31.43" />
                <line class="cls-12" x1="31.32" y1="34" x2="30.96" y2="35.96" />
                <line class="cls-12" x1="34.09" y1="37.47" x2="35.33" y2="38.27" />
                <line class="cls-13" x1="37.8" y1="37.27" x2="37.39" y2="37.66" />
                <line class="cls-12" x1="39.51" y1="33.89" x2="37.93" y2="33.76" />
                <line class="cls-12" x1="40.27" y1="33.24" x2="40.36" y2="31.71" />
                <line class="cls-13" x1="39.42" y1="29" x2="39.82" y2="29.31" />
                <line class="cls-13" x1="38.29" y1="29.37" x2="37.59" y2="30.75" />
                <line class="cls-13" x1="37.96" y1="28.91" x2="36.86" y2="29" />
                <line class="cls-12" x1="33.82" y1="36.35" x2="34.41" y2="35.37" />
                <line class="cls-12" x1="35.33" y1="30.05" x2="35.42" y2="31.27" />
                <path class="cls-13" d="M38.12,28.25a6.21,6.21,0,0,0-2.44-.48,6,6,0,0,0-2.69.69" />
                <path class="cls-13" d="M30.42,36.06a5.46,5.46,0,0,1,.15-5.36" />
                <path class="cls-13" d="M31.19,37.37a5,5,0,0,0,1.64,1.4,5.27,5.27,0,0,0,1.72.55" />
                <path class="cls-13" d="M40.32,37.15A4.71,4.71,0,0,1,39,38.56a4.66,4.66,0,0,1-1.4.6" />
                <path class="cls-13" d="M41.12,35.86a3.87,3.87,0,0,0,.62-1.47,4,4,0,0,0-.18-2.17" />

                <animateTransform id="connect-rotate" attributeType="XML" attributeName="transform" type="rotate"
                    values="0; 360" dur="1s" begin="2.5s;connect-rotate.end+7.5s" />
            </g>
            <g id="user">
                <circle class="cls-12" cx="35.77" cy="33.05" r="0.7" />
                <path class="cls-13" d="M34.71,34.6A1.38,1.38,0,0,1,35.77,34a1.54,1.54,0,0,1,1.09.56" />

                <animateTransform id="connect-rotate" attributeType="XML" attributeName="transform" type="rotate"
                    values="0; -360" dur="1s" begin="2.5s;connect-rotate.end+7.5s" />
            </g>
        </g>
        <g id="GITHUB_MASK" data-name="GITHUB MASK">
            <circle id="photoObjectBg-2" data-name="photoObjectBg" class="cls-14" cx="47.42" cy="47.42" r="47.42" />

            <path class="cls-15 shape left-bottom-square"
                d="M23.6,58.61H20.77a.82.82,0,0,1-.82-.82V55a.82.82,0,0,1,.82-.81H23.6a.82.82,0,0,1,.82.81v2.83A.82.82,0,0,1,23.6,58.61Zm-2-1.63h1.19v-1.2H21.59Z" />
            <path class="cls-16 shape left-top-circle"
                d="M29.52,27.43a2,2,0,1,1,2-2A2,2,0,0,1,29.52,27.43Zm0-3.05a1.09,1.09,0,1,0,1.08,1.09A1.09,1.09,0,0,0,29.52,24.38Z" />
            <path class="cls-17 shape right-top-triangle"
                d="M69.33,42.43H66.05a.5.5,0,0,1-.43-.25.5.5,0,0,1,0-.5l1.63-2.84a.52.52,0,0,1,.87,0l1.64,2.84a.5.5,0,0,1,0,.5A.52.52,0,0,1,69.33,42.43Zm-2.41-1h1.54l-.77-1.34Z" />
            <path class="cls-18 shape right-bottom-pentagon"
                d="M42.71,72.25H40.26l-.75-2.33,2-1.44,2,1.44Zm-1.72-1h1l.3-1-.8-.58-.81.58Z" />


        </g>
    </g>
</svg>