<svg xmlns="http://www.w3.org/2000/svg" xmlns:xlink="http://www.w3.org/1999/xlink" viewBox="0 0 94.34 94.34">
    <defs>
        <style>
            .cls-1 {
                fill: url(#Gradient_bez_nazwy_10);
            }

            .cls-2,
            .cls-3 {
                fill: #fff;
            }

            .cls-2 {
                opacity: 0.5;
            }

            .cls-4,
            .cls-5 {
                fill: #00d8ff;
            }

            .cls-10,
            .cls-4 {
                fill-rule: evenodd;
            }

            .cls-10,
            .cls-11,
            .cls-6,
            .cls-7,
            .cls-9 {
                fill: none;
            }

            .cls-6,
            .cls-7 {
                stroke: #fff;
                stroke-width: 0.5px;
            }

            .cls-10,
            .cls-6,
            .cls-7,
            .cls-8,
            .cls-9 {
                stroke-miterlimit: 10;
            }

            .cls-7 {
                stroke-linecap: round;
            }

            .cls-8 {
                fill: #00d2e8;
            }

            .cls-10,
            .cls-8,
            .cls-9 {
                stroke: #00d2e8;
                stroke-width: 0.75px;
            }

            .cls-12 {
                fill: #4edde9;
            }

            .cls-13 {
                fill: #43d3e0;
            }

            .cls-14 {
                fill: #98edf9;
            }

            #gear,
            #left-fly,
            #right-fly {
                transform-box: fill-box;
                transform-origin: center;
            }

            .shape {
                transform-box: fill-box;
                transform-origin: center;

                opacity: 0;
            }

            .left-top-triangle {
                animation: left-top-transition 4s linear infinite;
                animation-delay: 1s;

                transform: translate(-30px, -15px);

            }

            .right-top-triangle {
                animation: right-top-transition 4s linear infinite;
                animation-delay: 2s;

                transform: translate(20px, -15px);
            }

            .left-bottom-triangle {
                animation: left-bottom-transition 4s linear infinite;
                animation-delay: 3s;

                transform: translate(-25px, 15px);
            }

            .right-bottom-triangle {
                animation: right-bottom-transition 4s linear infinite;
                animation-delay: 4s;

                transform: translate(25px, 15px);
            }


            @keyframes left-top-transition {
                0% {
                    opacity: 1;
                    transform: translate(0px, 0px) rotate(0deg);
                }

                50% {
                    transform: translate(-12.5px, -7.5px) rotate(360deg) scale(1);
                }

                100% {
                    opacity: 1;
                    transform: translate(-25px, -15px) rotate(720deg) scale(0);
                }
            }

            @keyframes right-top-transition {
                0% {
                    opacity: 1;
                    transform: translate(0px, 0px) rotate(0deg);
                }

                50% {
                    transform: translate(15px, -7.5px) rotate(360deg) scale(1);
                }

                100% {
                    opacity: 1;
                    transform: translate(30px, -15px) rotate(720deg) scale(0);
                }
            }

            @keyframes left-bottom-transition {
                0% {
                    opacity: 1;
                    transform: translate(0px, 0px) rotate(0deg);
                }

                50% {
                    transform: translate(-17.5px, 8.5px) rotate(360deg) scale(1);
                }

                100% {
                    opacity: 1;
                    transform: translate(-25px, 15px) rotate(720deg) scale(0);
                }
            }

            @keyframes right-bottom-transition {
                0% {
                    opacity: 1;
                    transform: translate(0px, 0px) rotate(0deg);
                }

                50% {
                    transform: translate(15px, 8.5px) rotate(360deg) scale(1);
                }

                100% {
                    opacity: 1;
                    transform: translate(20px, 15px) rotate(720deg) scale(0);
                }
            }
        </style>
        <linearGradient id="Gradient_bez_nazwy_10" x1="11.1" y1="9.96" x2="97.94" y2="99.55"
            gradientUnits="userSpaceOnUse">
            <stop offset="0" stop-color="#0097b2" />
            <stop offset="0.18" stop-color="#2ec1d2" />
            <stop offset="0.4" stop-color="#63f0f7" />
            <stop offset="0.54" stop-color="#8ceef8" />
            <stop offset="0.74" stop-color="#c1eafa" />
            <stop offset="0.83" stop-color="#d6e9fb" />
        </linearGradient>


    </defs>
    <g id="Warstwa_2" data-name="Warstwa 2">
        <g id="REACT">
            <circle id="photoObjectBg" class="cls-1" cx="47.17" cy="47.17" r="38.5" />
            <path class="cls-2"
                d="M36.78,35.17H57.55a3.11,3.11,0,0,1,3.11,3.11V43a0,0,0,0,1,0,0h-27a0,0,0,0,1,0,0V38.28A3.11,3.11,0,0,1,36.78,35.17Z" />
            <path class="cls-3"
                d="M33.67,40.26h27a0,0,0,0,1,0,0V56.05a3.12,3.12,0,0,1-3.12,3.12H36.78a3.12,3.12,0,0,1-3.12-3.12V40.26A0,0,0,0,1,33.67,40.26Z" />
            <path class="cls-4"
                d="M63.1,57.44a23.08,23.08,0,0,0-3.4-7.06c-2-2.82-3.62-3.65-4.32-4a2.2,2.2,0,0,0-1.68-.23c-.93.36-1.34,1.7-1.38,1.83s-.08.35-.09.4a4,4,0,0,0,0,1.33,18,18,0,0,0,1.12,3.79,22.14,22.14,0,0,0,2.41,4.32A19.71,19.71,0,0,0,58.71,61a4.15,4.15,0,0,0,1.49.9,2.68,2.68,0,0,0,2.39-.13,2.32,2.32,0,0,0,.76-1.49A5.78,5.78,0,0,0,63.1,57.44Zm-.58,3.1a1.48,1.48,0,0,1-.59.79c-.18.09-.63.27-1.68-.22a9.4,9.4,0,0,1-3-2.71,19.2,19.2,0,0,1-1.53-2,18.23,18.23,0,0,1-1.4-2.6,20.74,20.74,0,0,1-1-2.86A10.79,10.79,0,0,1,53,48.65a2,2,0,0,1,0-.44A1.61,1.61,0,0,1,54,47a1.22,1.22,0,0,1,.75,0,8.47,8.47,0,0,1,3.13,2.32,20.69,20.69,0,0,1,1.89,2.51,21.44,21.44,0,0,1,1.56,2.91,14.77,14.77,0,0,1,1,2.83,11.66,11.66,0,0,1,.24,1.61A2.75,2.75,0,0,1,62.52,60.54Z" />
            <path class="cls-4"
                d="M63.34,51.23a21.48,21.48,0,0,0-3.91-.65,21.88,21.88,0,0,0-3.91,0c-3.45.33-5,1.29-5.59,1.73a2.2,2.2,0,0,0-1,1.33,3,3,0,0,0,.88,2.12,2.76,2.76,0,0,0,.3.28,3.77,3.77,0,0,0,1.15.65,18.14,18.14,0,0,0,3.84.95,21.15,21.15,0,0,0,4.95.1,20.2,20.2,0,0,0,4.21-.93A4.11,4.11,0,0,0,65.74,56a2.68,2.68,0,0,0,1.1-2.13,2.32,2.32,0,0,0-.9-1.4A5.89,5.89,0,0,0,63.34,51.23Zm2.38,2.07a1.49,1.49,0,0,1,.39.91c0,.2-.08.68-1,1.33a9.19,9.19,0,0,1-3.85,1.23,21.85,21.85,0,0,1-2.52.3,18.69,18.69,0,0,1-3-.11,17.12,17.12,0,0,1-3-.54,11.67,11.67,0,0,1-2.09-.91,1.49,1.49,0,0,1-.36-.26,1.6,1.6,0,0,1-.59-1.44,1.18,1.18,0,0,1,.42-.63,8.47,8.47,0,0,1,3.58-1.54,20.91,20.91,0,0,1,3.11-.36,21.59,21.59,0,0,1,3.3.12,15.51,15.51,0,0,1,3,.56,11.85,11.85,0,0,1,1.5.61A2.6,2.6,0,0,1,65.72,53.3Z" />
            <path class="cls-4"
                d="M57.57,60.36a21.79,21.79,0,0,0,2.51-3.06A23,23,0,0,0,62,53.89c1.43-3.15,1.36-5,1.28-5.71a2.19,2.19,0,0,0-.64-1.57,2.93,2.93,0,0,0-2.27-.28c-.18,0-.35.1-.39.11a3.81,3.81,0,0,0-1.14.69A18.36,18.36,0,0,0,56.1,50a22.74,22.74,0,0,0-2.54,4.24,20.1,20.1,0,0,0-1.29,4.12,4.28,4.28,0,0,0,0,1.74,2.71,2.71,0,0,0,1.3,2A2.27,2.27,0,0,0,55.21,62,5.76,5.76,0,0,0,57.57,60.36Zm-3,1a1.45,1.45,0,0,1-1-.12c-.17-.1-.55-.4-.64-1.56a9.32,9.32,0,0,1,.85-3.95,18,18,0,0,1,2.55-4.85,20.52,20.52,0,0,1,2-2.33,11.53,11.53,0,0,1,1.84-1.36,1.56,1.56,0,0,1,.4-.18,1.59,1.59,0,0,1,1.54.21,1.25,1.25,0,0,1,.34.67A8.41,8.41,0,0,1,62,51.8a21,21,0,0,1-3,5.69,15.16,15.16,0,0,1-2,2.28,11.94,11.94,0,0,1-1.27,1A2.76,2.76,0,0,1,54.59,61.4Z" />
            <circle class="cls-5" cx="57.75" cy="54.17" r="1.59" />
            <g id="gear">
                <path class="cls-6"
                    d="M35.21,39H36l.41-.77a.57.57,0,0,1,.7-.27l.65.22.44-.38L37.93,37a.59.59,0,0,1,.27-.66l.69-.39v-.65l-.6-.22a.59.59,0,0,1-.38-.62l.13-1-.38-.38-.57.23a.58.58,0,0,1-.71-.25l-.44-.75h-.73l-.4.75a.58.58,0,0,1-.72.27l-.61-.24-.4.42.27.67a.57.57,0,0,1-.26.71l-.71.41V36l.76.47a.59.59,0,0,1,.26.62l-.19.81.32.31.56-.21a.58.58,0,0,1,.7.27Z" />
                <circle class="cls-6" cx="35.63" cy="35.67" r="1.19" />

                <animateTransform id="gear-rotate" attributeType="XML" attributeName="transform" type="rotate"
                    values="0; 360" dur="1s" begin="6s;gear-rotate.end+9s" />
            </g>
            <path class="cls-6"
                d="M40.05,34.91a.35.35,0,0,1,.14,0l.65.22.44-.38L41.06,34a.59.59,0,0,1,.27-.66l.69-.39v-.65l-.6-.22a.59.59,0,0,1-.38-.62l.13-1-.38-.38-.57.23a.58.58,0,0,1-.71-.25l-.44-.75h-.73l-.4.75a.58.58,0,0,1-.72.27l-.61-.24-.4.42.27.67a.94.94,0,0,1,0,.16" />
            <path class="cls-6" d="M37.88,31.84a1.2,1.2,0,0,1,2.08.8,1.21,1.21,0,0,1-.38.88" />
            <g id="left-fly">
                <line class="cls-7" x1="32.2" y1="31.95" x2="34.02" y2="31.95" />
                <line class="cls-7" x1="33.34" y1="30.98" x2="34.44" y2="30.98" />

                <animateTransform id="left-translate" attributeType="XML" attributeName="transform" type="translate"
                    values="0; -2; 0" dur="1s" begin="6s;left-translate.end+9s" />
            </g>
            <g id="right-fly">
                <line class="cls-7" x1="39.12" y1="37.98" x2="40.17" y2="37.98" />
                <line class="cls-7" x1="39.65" y1="36.87" x2="41.34" y2="36.87" />

                <animateTransform id="right-translate" attributeType="XML" attributeName="transform" type="translate"
                    values="0; 2; 0" dur="1s" begin="6s;right-translate.end+9s" />
            </g>
            <circle class="cls-8" cx="38.53" cy="62.97" r="1.45" />
            <circle class="cls-8" cx="44.5" cy="62.97" r="1.45" />
            <circle class="cls-9" cx="50.23" cy="62.97" r="1.45" />
            <circle class="cls-8" cx="69.99" cy="42.95" r="1.45" />
            <polygon class="cls-10" points="66.07 44.28 64.51 41.62 62.98 44.28 66.07 44.28" />
            <rect class="cls-9" x="57" y="41.58" width="2.75" height="2.75"
                transform="translate(116.76 85.91) rotate(-180)" />
        </g>
        <g id="REACT_MASK" data-name="REACT MASK">
            <circle id="photoObjectBg-2" data-name="photoObjectBg" class="cls-11" cx="47.17" cy="47.17" r="47.17" />
            <path class="cls-12 shape right-top-triangle"
                d="M55.83,29.91h-5.1a.47.47,0,0,1-.43-.25.5.5,0,0,1,0-.5l2.54-4.41a.52.52,0,0,1,.87,0l2.55,4.41a.5.5,0,0,1,0,.5A.48.48,0,0,1,55.83,29.91Zm-4.24-1H55L53.28,26Z" />
            <path class="cls-13 shape left-top-triangle"
                d="M28.75,48.2h-5.1a.5.5,0,0,1-.43-.25.5.5,0,0,1,0-.5L25.77,43a.51.51,0,0,1,.86,0l2.55,4.42a.5.5,0,0,1,0,.5A.5.5,0,0,1,28.75,48.2Zm-4.23-1h3.36L26.2,44.28Z" />
            <path class="cls-14 shape right-bottom-triangle"
                d="M73.76,50.11H70.49a.52.52,0,0,1-.44-.25.55.55,0,0,1,0-.5l1.64-2.84a.52.52,0,0,1,.87,0l1.64,2.84a.5.5,0,0,1,0,.5A.52.52,0,0,1,73.76,50.11Zm-2.41-1H72.9l-.77-1.34Z" />
            <path class="cls-14 shape left-bottom-triangle"
                d="M47.59,77.6H44.32a.48.48,0,0,1-.43-.25.5.5,0,0,1,0-.5L45.52,74a.52.52,0,0,1,.87,0L48,76.85a.5.5,0,0,1-.44.75Zm-2.4-1h1.54L46,75.27Z" />


        </g>
    </g>
</svg>